<svg width="16" height="16" viewBox="0 0 16 16" fill="none" xmlns="http://www.w3.org/2000/svg">
<circle cx="8" cy="8" r="8" fill="#D8534E"/>
<path d="M7.245 9.355L6.78 2.5H9.57L9.105 9.355H7.245ZM8.175 13.12C7.755 13.12 7.41 12.985 7.14 12.715C6.87 12.445 6.735 12.125 6.735 11.755C6.735 11.375 6.87 11.06 7.14 10.81C7.41 10.55 7.755 10.42 8.175 10.42C8.605 10.42 8.95 10.55 9.21 10.81C9.48 11.06 9.615 11.375 9.615 11.755C9.615 12.125 9.48 12.445 9.21 12.715C8.95 12.985 8.605 13.12 8.175 13.12Z" fill="white"/>
</svg>
